<?xml version="1.0" encoding="utf-8"?>
<!-- Generator: Adobe Illustrator 19.0.0, SVG Export Plug-In . SVG Version: 6.00 Build 0)  -->
<svg version="1.1" id="Layer_1" xmlns="http://www.w3.org/2000/svg" xmlns:xlink="http://www.w3.org/1999/xlink" x="0px" y="0px"
	 viewBox="0 0 640 1136" style="enable-background:new 0 0 640 1136;" xml:space="preserve">
<style type="text/css">
	.st0{fill:#59539A;}
</style>
<path id="XMLID_54_" class="st0" d="M105.6,623.5c-16.5,42-16.4,93.2,11.3,128.7c28.6,36.7,78.4,48.4,124.6,54
	c69,8.4,142.3,7.6,203.7-25c61.4-32.6,106.1-104.7,88.1-171.8c-12.2-45.5-50.7-85.7-43.6-132.3c5.3-34.7,35.9-64.5,31-99.2
	c-3.3-24-23.9-43-46.9-50.3c-23.1-7.4-48.1-4.9-71.7,0.4c-69.9,15.6-133.5,56.2-178.3,111.9c-20.4,25.3-31.1,54.5-48.5,81.1
	C152,556.4,121.5,582.8,105.6,623.5z"/>
</svg>
