<?xml version="1.0" encoding="utf-8"?>
<!-- Generator: Adobe Illustrator 19.0.0, SVG Export Plug-In . SVG Version: 6.00 Build 0)  -->
<svg version="1.1" xmlns="http://www.w3.org/2000/svg" xmlns:xlink="http://www.w3.org/1999/xlink" x="0px" y="0px"
	 viewBox="0 0 640 1136" style="enable-background:new 0 0 640 1136;" xml:space="preserve">
<style type="text/css">
	.st0{display:none;}
	.st1{display:inline;fill:#59539A;}
	.st2{fill:#59539A;}
</style>
<g id="Layer_1" class="st0">
	<path id="XMLID_54_" class="st1" d="M105.6,623.5c-16.5,42-16.4,93.2,11.3,128.7c28.6,36.7,78.4,48.4,124.6,54
		c69,8.4,142.3,7.6,203.7-25c61.4-32.6,106.1-104.7,88.1-171.8c-12.2-45.5-50.7-85.7-43.6-132.3c5.3-34.7,35.9-64.5,31-99.2
		c-3.3-24-23.9-43-46.9-50.3c-23.1-7.4-48.1-4.9-71.7,0.4c-69.9,15.6-133.5,56.2-178.3,111.9c-20.4,25.3-31.1,54.5-48.5,81.1
		C152,556.4,121.5,582.8,105.6,623.5z"/>
</g>
<g id="Layer_2" class="st0">
	<path id="XMLID_56_" class="st1" d="M85.7,617.6c33.1,45.7,88.3,72.9,116.3,121.8c34.2,59.7,21.6,141.2,66.3,193.4
		c31.2,36.5,82.6,48.5,130.6,49.3c48.8,0.9,99-8.2,140.1-34.5c41.1-26.4,71.5-72.1,71.3-120.9c-0.5-97-112.7-165.3-115.1-262.3
		c-2.4-97,107.2-176.7,87.6-271.7C571.6,238.7,521.1,202,471,178.4c-60.3-28.5-129.2-46.2-193.9-29.7
		c-53.6,13.6-99.4,49.7-134.4,92.6C61.6,340.4,0.8,500.4,85.7,617.6z"/>
</g>
<g id="Layer_3" class="st0">
	<path id="XMLID_338_" class="st1" d="M279.4,354.2c-38.1,49.6-90.9,85.4-139.5,124.7S44.3,564.6,25.7,624.3
		C1.2,702.7,30,786.7,58.4,863.8c14.9,40.5,29.9,80.9,44.8,121.4c7.5,20.3,15.8,41.7,33.1,54.6c27.1,20.2,66.4,12,95.4-5.3
		c47-28.1,79.7-76.1,127.5-102.8c72.4-40.4,173.7-29,227.1-92.4c24.3-28.9,32.9-68.2,32.4-105.9c-0.5-37.7-9.1-74.8-15.4-112
		c-13.4-79.6-16.3-161-8.5-241.4c3.9-40.1,10.4-80.1,9-120.4s-11.6-81.6-37.4-112.6c-32-38.5-85.7-55.8-135.2-48.4
		c-46.7,6.9-119.9,40.1-112.7,92.4C327,252.3,318.4,303.4,279.4,354.2z"/>
</g>
<g id="Layer_4" class="st0">
	<path id="XMLID_1_" class="st1" d="M57.2,613.4c1.4,43.6,17.1,88.8,51.2,116.2c32.2,25.8,75.3,32.1,114.7,44.8
		c69.7,22.4,135.4,67.5,208.5,62.7c48.7-3.2,95.2-30.3,122-71.2c26.7-40.8,33-94.4,16.4-140.3c-13.4-37-40.5-69.1-46.2-108
		c-4.2-28.5,3.8-57.3,5.6-86.1c2.8-46.2-11.1-93.3-38.5-130.7c-25.3-34.4-66.5-61.4-108.7-54.7c-33.6,5.4-60.1,30.4-90,46.8
		c-33.1,18.2-70.7,26-107.1,36.3c-36.4,10.2-73.3,24-99.7,51c-31,31.7-31.3,65.2-21.2,104.4C75,527.2,55.8,569.3,57.2,613.4z"/>
</g>
<g id="Layer_5">
	<path id="XMLID_2_" class="st2" d="M168.1,754.5c29.4,51.7,63.5,102.4,111.4,137.5s112.3,52.6,168.2,32.4
		c39.7-14.3,71.5-46.3,91.4-83.5c18.7-35,27.7-76.7,16.5-114.8c-12.5-42.7-47.5-74.1-78.3-106.2c-70.7-73.5-127.5-164.4-142.1-265.4
		c-5.9-40.8-4.9-82.3-9.1-123.3s-14.6-82.8-40-115.3s-68.7-53.5-108.6-43.1c-36.6,9.5-62.5,41.8-81.5,74.5
		c-39,67-66.8,147.8-57.8,225.8c9.8,85.7,32.9,169.6,65.6,249.3C122.3,667.8,143.9,711.9,168.1,754.5z"/>
</g>
</svg>
